# xmcd
#
# Track frame offsets:
#	150
#	9876
#	19334
#	30163
#	40841
#	50749
#	60109
#	71130
#	82394
#	93164
#	103781
#	115419
#
# Disc length: 1685 seconds
#
# Revision: 1
# Processed by: cddbd v1.5.2PL0 Copyright (c) Steve Scherf et al.
# Submitted via: audiograbber 1.83.01
#
DISCID=9406930c
DTITLE=George Jones - I'm A People
DYEAR=1966
DGENRE=Country
TTITLE0=I'm A People
TTITLE1=Don't Think I Don't love You (skips)
TTITLE2=Ship Of Love
TTITLE3=Once A Day
TTITLE4=If You Believe
TTITLE5=Blindfold Of Love
TTITLE6=Four-0-Thirty Three
TTITLE7=I Don't Love You Anymore
TTITLE8=The Lonely Know My Secret
TTITLE9=World Of Forgotten People
TTITLE10=I Woke Up From Dreaming
TTITLE11=Old Brush Arbors
EXTD=
EXTT0=
EXTT1=
EXTT2=
EXTT3=
EXTT4=
EXTT5=
EXTT6=
EXTT7=
EXTT8=
EXTT9=
EXTT10=
EXTT11=
PLAYORDER=
